# xmcd CD database file
#
# Track frame offsets:
#	182
#	13447
#	22787
#	36365
#	45747
#	56142
#	67872
#	76772
#	88672
#	95327
#	103180
#	111537
#	119422
#	131735
#	143172
#	149422
#
# Disc length: 2128 seconds
#
# Revision: 0
# Processed by: cddbd v1.5.2PL0 Copyright (c) Steve Scherf et al.
# Submitted via: CDex 1.51
#
DISCID=e4084e10
DTITLE=Autry, Gene - Cowboy Blues
DYEAR=1994
DGENRE=Country
TTITLE0=San Antonio Rose
TTITLE1=It Happenend In Monterrey
TTITLE2=My Adobe Hacienda
TTITLE3=I Hang My Head And Cry
TTITLE4=Mexicali Rose
TTITLE5=Down The Valley
TTITLE6=In A Little SpanishTown
TTITLE7=Lonely River
TTITLE8=South Of The Border
TTITLE9=Cowboy Blues
TTITLE10=Under Fiesta Stars
TTITLE11=A Gay Rancher
TTITLE12=Vaya Con Dios
TTITLE13=Rancho Pillow
TTITLE14=There's No Backdoor To Heaven
TTITLE15=El Rancho Grande (My Ranch)
EXTD=YEAR: 1994
EXTT0=
EXTT1=
EXTT2=
EXTT3=
EXTT4=
EXTT5=
EXTT6=
EXTT7=
EXTT8=
EXTT9=
EXTT10=
EXTT11=
EXTT12=
EXTT13=
EXTT14=
EXTT15=
PLAYORDER=
